<svg width="120" height="62" viewBox="0 0 120 62" version="1.1" xmlns="http://www.w3.org/2000/svg">
    <g stroke="none" stroke-width="1" fill="none" fill-rule="evenodd">
        <g>
            <rect fill="#003C71" x="0" y="0" width="120" height="62"></rect>
            <g transform="translate(35.5505, 24.6946)" fill="#FFFFFF" fill-rule="nonzero">
                <polygon id="Path" points="0 0 3.717 0 3.717 12.213 9.43056 12.213 9.43056 15.16536 0 15.16536"></polygon>
                <path d="M22.49316,9.53676 C22.49316,10.45716 22.34802,11.27844 22.05774,12.0006 C21.76746,12.72276 21.3639,13.33872 20.84706,13.84848 C20.33022,14.35824 19.70364,14.74764 18.96732,15.01668 C18.231,15.28572 17.4168,15.42024 16.52472,15.42024 C15.61848,15.42024 14.80074,15.28572 14.0715,15.01668 C13.34226,14.74764 12.71568,14.35824 12.19176,13.84848 C11.66784,13.33872 11.26428,12.72276 10.98108,12.0006 C10.69788,11.27844 10.55628,10.45716 10.55628,9.53676 C10.55628,8.63052 10.69788,7.81632 10.98108,7.09416 C11.26428,6.372 11.6643,5.75958 12.18114,5.2569 C12.69798,4.75422 13.3281,4.36836 14.0715,4.09932 C14.8149,3.83028 15.63264,3.69576 16.52472,3.69576 C17.43096,3.69576 18.25224,3.83028 18.98856,4.09932 C19.72488,4.36836 20.35146,4.75068 20.8683,5.24628 C21.38514,5.74188 21.78516,6.35076 22.06836,7.07292 C22.35156,7.79508 22.49316,8.61636 22.49316,9.53676 Z M18.88236,9.53676 C18.88236,8.6022 18.68412,7.84464 18.28764,7.26408 C17.89116,6.68352 17.30352,6.38616 16.52472,6.372 C15.73176,6.38616 15.14058,6.68352 14.75118,7.26408 C14.36178,7.84464 14.16708,8.6022 14.16708,9.53676 C14.16708,10.52796 14.36532,11.3103 14.7618,11.88378 C15.15828,12.45726 15.74592,12.744 16.52472,12.744 C17.31768,12.72984 17.90886,12.43956 18.29826,11.87316 C18.68766,11.30676 18.88236,10.52796 18.88236,9.53676 Z"></path>
                <path d="M27.8244,9.21816 C27.8244,10.09608 28.0014,10.797 28.3554,11.32092 C28.7094,11.84484 29.26164,12.11388 30.01212,12.12804 C30.39444,12.12804 30.74136,12.0537 31.05288,11.90502 C31.3644,11.75634 31.6299,11.54394 31.84938,11.26782 C32.06886,10.9917 32.23524,10.68372 32.34852,10.34388 C32.4618,10.00404 32.51844,9.6288 32.51844,9.21816 C32.51844,8.41104 32.29542,7.73844 31.84938,7.20036 C31.40334,6.66228 30.79092,6.38616 30.01212,6.372 C29.6298,6.372 29.30412,6.4428 29.03508,6.5844 C28.76604,6.726 28.53948,6.92424 28.3554,7.17912 C28.17132,7.434 28.0368,7.7349 27.95184,8.08182 C27.86688,8.42874 27.8244,8.80752 27.8244,9.21816 Z M32.36976,13.55112 L32.32728,13.55112 C31.95912,13.99008 31.50246,14.30868 30.9573,14.50692 C30.41214,14.70516 29.82804,14.80428 29.205,14.80428 C28.44036,14.80428 27.74652,14.66268 27.12348,14.37948 C26.50044,14.09628 25.97298,13.70334 25.5411,13.20066 C25.10922,12.69798 24.78,12.1068 24.55344,11.42712 C24.32688,10.74744 24.2136,10.01112 24.2136,9.21816 C24.2136,8.41104 24.32688,7.67472 24.55344,7.0092 C24.78,6.34368 25.10922,5.76312 25.5411,5.26752 C25.97298,4.77192 26.50044,4.38606 27.12348,4.10994 C27.74652,3.83382 28.44036,3.69576 29.205,3.69576 C29.82804,3.69576 30.40506,3.8055 30.93606,4.02498 C31.46706,4.24446 31.9308,4.58076 32.32728,5.03388 L32.36976,5.03388 L32.36976,3.95064 L35.91684,3.95064 L35.91684,13.93344 C35.90268,15.03792 35.70444,15.93354 35.32212,16.6203 C34.9398,17.30706 34.43358,17.84868 33.80346,18.24516 C33.17334,18.64164 32.47596,18.91776 31.71132,19.07352 C30.94668,19.22928 30.16788,19.30716 29.37492,19.30716 C28.68108,19.30716 28.0368,19.27176 27.44208,19.20096 C26.84736,19.13016 26.30928,19.03812 25.82784,18.92484 L26.21016,16.26984 C26.70576,16.41144 27.16596,16.50702 27.59076,16.55658 C28.01556,16.60614 28.44036,16.63092 28.86516,16.63092 C30.08292,16.63092 30.97146,16.42914 31.53078,16.02558 C32.0901,15.62202 32.36976,14.96712 32.36976,14.06088 L32.36976,13.55112 Z"></path>
                <path d="M50.10516,9.53676 C50.10516,10.45716 49.96002,11.27844 49.66974,12.0006 C49.37946,12.72276 48.9759,13.33872 48.45906,13.84848 C47.94222,14.35824 47.31564,14.74764 46.57932,15.01668 C45.843,15.28572 45.0288,15.42024 44.13672,15.42024 C43.23048,15.42024 42.41274,15.28572 41.6835,15.01668 C40.95426,14.74764 40.32768,14.35824 39.80376,13.84848 C39.27984,13.33872 38.87628,12.72276 38.59308,12.0006 C38.30988,11.27844 38.16828,10.45716 38.16828,9.53676 C38.16828,8.63052 38.30988,7.81632 38.59308,7.09416 C38.87628,6.372 39.2763,5.75958 39.79314,5.2569 C40.30998,4.75422 40.9401,4.36836 41.6835,4.09932 C42.4269,3.83028 43.24464,3.69576 44.13672,3.69576 C45.04296,3.69576 45.86424,3.83028 46.60056,4.09932 C47.33688,4.36836 47.96346,4.75068 48.4803,5.24628 C48.99714,5.74188 49.39716,6.35076 49.68036,7.07292 C49.96356,7.79508 50.10516,8.61636 50.10516,9.53676 Z M46.49436,9.53676 C46.49436,8.6022 46.29612,7.84464 45.89964,7.26408 C45.50316,6.68352 44.91552,6.38616 44.13672,6.372 C43.34376,6.38616 42.75258,6.68352 42.36318,7.26408 C41.97378,7.84464 41.77908,8.6022 41.77908,9.53676 C41.77908,10.52796 41.97732,11.3103 42.3738,11.88378 C42.77028,12.45726 43.35792,12.744 44.13672,12.744 C44.92968,12.72984 45.52086,12.43956 45.91026,11.87316 C46.29966,11.30676 46.49436,10.52796 46.49436,9.53676 Z"></path>
            </g>
        </g>
    </g>
</svg>